PathFileType	4	(X/Y/Z)	C:/Users/beibeiliu/ov580/test_trc/User2\sequence.1_training_dense_left.trc
DataRate	CameraRate	NumFrames	NumMarkers	Units	OrigDataRate	OrigDataStartFrame	OrigNumFrames
120	120	24	19	mm	120	85	338
Frame#	Time	ThumbCMC			ThumbMCP			ThumbIP			ThumbTip			IndexMCP			IndexPIP			IndexTip			MiddleMCP			MiddlePIP			MiddleTip			RingMCP			RingPIP			RingTip			PinkyMCP			PinkyPIP			PinkyTip			BackHand1			BackHand2			BackHand3	
		X0	Y0	Z0	X1	Y1	Z1	X2	Y2	Z2	X3	Y3	Z3	X4	Y4	Z4	X5	Y5	Z5	X6	Y6	Z6	X7	Y7	Z7	X8	Y8	Z8	X9	Y9	Z9	X10	Y10	Z10	X11	Y11	Z11	X12	Y12	Z12	X13	Y13	Z13	X14	Y14	Z14	X15	Y15	Z15	X16	Y16	Z16	X17	Y17	Z17	X18	Y18	Z18	
84	0.7	-114.568	7.94242	126.093	-95.414	-0.881968	104.016	-76.3056	-6.9202	76.5204	-66.2223	-16.3824	58.1052	-140.441	22.2722	50.8927	-141.32	20.6688	17.8569	-138.809	18.4855	-5.82168	-168.639	23.5464	44.5464	-177.015	22.3089	16.4405	-181.041	17.8579	-16.2233	-194.934	16.9883	57.8515	-201.373	16.0487	28.5208	-206.494	12.5037	-0.100424	-209.518	4.83528	77.513	-224.136	4.06347	56.5512	-229.439	9.1001	32.8674	-188.358	21.9521	111.023	-180.255	25.5533	145.952	-148.186	30.3745	120.212	
85	0.708333	-113.966	6.98708	128.456	-98.5319	-1.1079	103.675	-81.6644	-8.28846	76.7729	-66.7458	-15.1869	56.7295	-142.174	21.8339	48.7189	-141.281	20.5921	23.1456	-140.846	17.6799	-6.39704	-168.54	24.2463	47.3977	-174.101	22.0215	13.0892	-180.185	17.5379	-14.6091	-196.565	17.2651	58.2127	-199.729	16.7104	30.2794	-209.319	11.9762	0.504292	-214.082	5.44796	77.6283	-222.201	4.4889	56.442	-234.34	9.9746	31.1857	-187.672	20.4054	113.904	-179.503	26.7034	142.217	-147.247	29.7127	123.295	
86	0.716667	-116.117	7.15625	129.254	-97.1202	-0.48125	104.114	-78.1071	-6.83159	78.8128	-65.9376	-13.9661	54.0027	-143.466	21.1896	50.5424	-138.006	21.8683	20.668	-139.784	18.1943	-8.8182	-172.581	23.2124	49.2659	-174.867	21.4705	17.2296	-183.273	17.6698	-18.2192	-193.836	16.3563	58.1414	-203.299	15.5716	28.675	-208.482	12.3176	4.14858	-209.793	4.70105	78.7849	-220.347	5.30245	52.6137	-233.787	8.42617	33.767	-186.94	19.3245	115.704	-179.003	28.0966	141.905	-146.962	31.2275	121.733	
87	0.725	-114.129	7.46119	129.263	-94.8245	0.406747	104.493	-82.1287	-6.27669	76.4503	-64.5516	-12.9082	57.6269	-142.616	22.6318	48.6004	-140.562	21.8729	22.1668	-139.825	19.0828	-7.39994	-168.816	24.6801	46.5336	-172.397	22.8094	15.98	-179.828	17.679	-13.4011	-196.374	16.8272	59.5909	-200.602	16.1542	31.9861	-206.969	12.2696	2.15379	-209.524	4.24023	79.933	-223.916	5.23461	54.5793	-233.569	7.24993	34.246	-187.26	21.7461	115.096	-179.871	27.3566	147.405	-148.079	31.2755	122.364	
88	0.733333	-114.169	8.27063	127.622	-96.8998	1.09066	105.816	-77.2168	-3.84036	74.4131	-67.2329	-12.6402	54.2781	-143.282	21.7113	52.0544	-138.65	21.994	19.4361	-141.962	19.2326	-4.89987	-172.709	23.9935	45.694	-175.934	21.8625	14.6018	-178.996	18.3704	-12.5384	-196.578	15.0307	61.915	-200.569	14.8705	34.0737	-207.801	11.2686	5.12218	-209.28	4.21532	80.5773	-220.688	3.84803	57.4851	-234.243	5.98732	37.1167	-184.423	21.7319	116.467	-180.967	27.5278	146.081	-147.603	29.9205	118.721	
89	0.741667	-115.087	8.70998	127.501	-97.3408	2.9316	105.232	-80.5956	-2.91892	75.2905	-65.9825	-9.9462	59.6216	-143.353	22.0399	51.0587	-140.285	21.8725	20.01	-138.299	20.0937	-8.00763	-172.335	23.8107	46.089	-173.54	21.8554	14.9655	-181.777	18.1802	-13.6136	-194.203	15.7979	59.9374	-203.393	15.1559	33.8273	-206.444	10.5407	4.84345	-211.576	1.77391	83.8955	-221.936	2.48282	56.9333	-231.358	4.85584	32.361	-187.456	19.4897	116.34	-182.304	26.7855	147.107	-148.055	31.3241	119.522	
90	0.75	-112.067	12.8262	129.242	-97.7502	5.9268	104.563	-75.9302	2.34234	73.7119	-65.6199	-4.30551	54.8422	-146.168	23.7805	52.0196	-142.991	23.9436	23.7386	-142.73	19.5973	-8.33732	-172.1	22.4854	50.4258	-176.659	21.1061	18.7433	-183.951	16.3701	-15.2909	-193.662	14.3439	62.4208	-203.828	13.6028	33.3054	-212.036	7.88414	1.37935	-213.547	0.128869	80.2457	-220.091	0.0839739	57.9652	-230.34	0.380913	35.3206	-182.922	18.5154	114.93	-183.154	23.984	144.505	-147.575	33.6021	120.545	
91	0.758333	-112.499	18.1339	127.688	-93.8292	13.9336	104.743	-75.7977	10.1049	76.4136	-65.4776	3.76489	57.2402	-144.691	25.546	46.9387	-145.595	24.0324	21.7136	-144.298	20.2603	-7.11386	-171.903	21.7978	50.4281	-178.118	19.018	13.9319	-186.307	13.3542	-14.9798	-197.114	11.429	57.5299	-206.753	7.32677	35.1955	-213.014	1.05146	5.6572	-208.133	-6.28612	83.9955	-222.86	-8.24298	58.1361	-234.852	-8.12736	34.5052	-184.888	17.071	113.658	-182.474	24.1159	143.123	-151.754	31.6077	118.561	
92	0.766667	-114.101	23.2776	127.669	-98.1483	19.8855	105.059	-78.6735	21.4904	72.7016	-68.2512	15.5647	52.8264	-149.399	24.8116	50.3737	-148.308	25.487	19.7366	-148.788	20.6039	-5.02416	-178.903	18.0058	49.5199	-183.56	13.6185	16.8895	-187.488	8.67875	-16.0333	-199.108	4.01685	60.5499	-207.525	-0.287439	33.4042	-210.511	-5.01064	7.05227	-208.782	-12.7797	83.4335	-219.786	-16.4712	58.9624	-230.258	-19.5507	32.9655	-188.079	11.111	115.398	-181.304	21.3077	147.281	-156.668	31.0001	122.817	
93	0.775	-117.553	27.4658	126.97	-99.6262	28.5476	100.338	-82.7219	28.7459	74.5288	-66.4432	29.1388	54.6414	-149.851	26.9876	50.898	-149.94	25.694	21.7294	-149.651	21.5347	-8.82145	-178.682	14.9802	45.4794	-184.115	10.0804	17.9847	-191.294	0.135765	-12.8439	-199.086	-3.65739	58.6489	-204.993	-8.51568	35.961	-207.77	-14.5744	4.00417	-202.999	-18.676	82.2551	-215.537	-25.4286	57.8228	-225.801	-32.7289	32.9684	-185.5	9.87649	113.833	-180.763	17.0419	144.3	-158.557	32.8797	120.753	
94	0.783333	-122.568	30.6915	126.805	-99.8485	36.7033	101.378	-84.1987	38.9595	69.3998	-72.0131	36.7829	52.8152	-152.236	25.6304	46.0976	-155.321	21.9831	20.0296	-152.924	18.1539	-6.89364	-179.396	11.6196	45.3786	-184.379	5.39651	15.0343	-192.253	-7.33533	-14.7829	-196.059	-9.30312	59.7461	-201.316	-14.7258	35.6959	-207.893	-25.676	4.40126	-199.254	-26.5117	82.1844	-212.435	-37.5904	63.0485	-222.306	-42.9661	36.0031	-183.422	3.85442	114.813	-184.226	13.4731	144.818	-162.783	29.6261	120.01	
95	0.791667	-124.662	33.5784	124.692	-103.737	40.3941	102.153	-90.8645	43.1941	68.9494	-72.9888	46.2527	52.6457	-156.365	22.7702	44.1552	-157.752	18.5113	16.8028	-156.351	12.1129	-12.1474	-182.349	3.22348	46.3509	-184.355	-1.33123	19.082	-189.697	-15.6455	-13.2508	-194.351	-17.8079	60.3013	-199.083	-24.3813	37.8179	-201.913	-33.8916	8.831	-195.791	-36.0247	86.7885	-207.439	-46.9932	57.7665	-212.765	-51.7489	34.9974	-186.774	-2.32052	112.486	-181.826	8.26589	144.647	-162.693	31.7825	116.912	
96	0.8	-126.362	37.1825	122.045	-109.716	43.7958	97.7035	-91.9543	52.901	65.6354	-79.5218	53.5229	47.9873	-156.88	20.4005	46.3475	-156.18	19.5092	16.3123	-156.952	10.3953	-12.4498	-179.042	-2.01903	49.7461	-184.159	-10.3097	16.9095	-185.957	-20.2074	-10.9018	-188.641	-20.499	59.8022	-194.554	-30.2687	34.6262	-196.157	-41.7657	8.29607	-189.806	-40.0493	82.4807	-197.823	-52.2204	58.712	-205.838	-62.3472	38.7117	-183.701	-7.55622	113.493	-185.07	3.59574	143.256	-162.285	29.3368	118.888	
97	0.808333	-129.293	38.5062	122.756	-112.648	48.3864	98.4539	-99.0453	54.6274	69.4148	-85.112	61.9731	45.4161	-158.126	20.0071	49.1243	-158.161	16.7587	15.2668	-156.783	9.41975	-12.6218	-178.484	-7.69369	50.042	-181.445	-13.968	15.6248	-182.422	-23.4215	-12.8612	-184.661	-26.6289	61.1954	-190.713	-39.2497	37.6863	-192.182	-49.0493	9.53796	-183.066	-45.0434	84.4309	-191.02	-56.5166	59.3458	-199.888	-67.301	38.9576	-180.237	-8.43682	113.204	-180.494	-0.830539	147.926	-166.277	23.8738	116.416	
98	0.816667	-131.97	43.691	122.541	-115.561	54.6753	98.9043	-104.375	61.8115	65.1104	-92.9878	64.9983	46.5314	-160.161	15.4053	48.6778	-159.425	13.5345	16.0726	-158.824	7.94548	-9.57404	-176.711	-9.48103	49.275	-179.015	-15.1622	19.7095	-180.954	-27.6365	-14.5795	-181.484	-32.1662	62.1338	-186.266	-43.6262	39.8692	-187.345	-51.2186	11.4557	-176.296	-48.7402	84.8453	-183.933	-60.7748	60.4845	-194.767	-72.6116	39.8391	-177.383	-14.2133	113.451	-178.961	-5.17089	148.066	-165.344	24.6394	120.174	
99	0.825	-137.192	41.1529	119.094	-123.238	55.6687	95.2186	-111.035	67.2879	67.3541	-99.1786	72.4212	47.7925	-162.626	13.7275	45.2186	-162.728	12.6475	19.5185	-161.337	6.95842	-10.3945	-176.478	-11.7847	50.0312	-178.881	-17.9641	15.7709	-180.012	-28.2998	-16.0539	-179.246	-36.2639	60.7807	-182.904	-43.5545	36.9421	-184.44	-52.0027	8.70495	-169.978	-48.9527	85.8018	-177.785	-63.6852	63.2177	-185.767	-74.4171	42.6057	-176.943	-18.2048	115.267	-177.8	-7.53382	144.265	-171.02	20.5914	120.64	
100	0.833333	-140.493	42.2526	123.871	-129.973	59.6895	95.1405	-120.309	70.4524	67.3549	-110.047	79.847	47.2245	-164.559	13.414	47.003	-165.206	10.2249	20.0009	-165.385	3.71043	-11.6572	-177.078	-15.8933	45.4596	-179.129	-21.9054	17.8427	-179.526	-29.8558	-15.3673	-175.467	-36.7563	63.2517	-179.402	-46.0859	37.8736	-182.895	-57.971	7.98534	-165.979	-56.1958	85.3709	-171.786	-66.0416	62.4183	-180.827	-78.6229	43.3047	-173.924	-21.8909	113.917	-175.043	-8.92271	147.063	-170.167	19.0348	118.123	
101	0.841667	-147.99	43.9161	117.015	-138.592	57.582	95.3787	-131.804	69.7335	64.4645	-123.837	81.9968	44.2758	-168.335	11.4858	45.3339	-168.568	9.56396	19.075	-169.358	0.427329	-13.4114	-175.116	-18.0981	48.8408	-178.427	-28.8142	14.7012	-179.676	-38.9434	-12.0742	-172.653	-40.1314	61.247	-176.313	-54.3322	35.0055	-177.746	-62.7436	9.04716	-159.591	-57.3005	84.1225	-163.534	-67.2713	61.9747	-172.726	-84.0176	42.154	-171.837	-23.9948	113.611	-172.913	-16.2872	142.504	-175.284	15.4292	113.972	
102	0.85	-156.379	44.3102	116.419	-151.558	61.1553	91.1349	-145.241	72.6746	62.8817	-139.081	84.6291	41.4193	-173.534	9.08174	41.8212	-173.483	6.10192	16.1345	-172.156	-2.41332	-9.78948	-175.679	-24.9557	46.5497	-178.424	-29.1233	15.9023	-178.461	-42.5662	-12.7105	-166.728	-45.916	62.035	-170.218	-55.5189	34.2091	-170.905	-67.8928	8.47297	-151.612	-55.1763	83.1119	-156.189	-69.5501	57.7498	-161.685	-87.1513	40.6152	-167.688	-28.8154	112.391	-171.479	-16.6055	140.904	-177.586	8.15136	114.742	
103	0.858333	-161.361	39.9063	117.144	-160.703	58.3971	93.5287	-158.815	75.3439	63.1036	-155.326	86.8579	41.3584	-176.222	2.619	43.7926	-176.665	0.08774	15.4721	-175.131	-4.39245	-12.9463	-174.258	-27.0023	46.9835	-176.024	-36.3895	14.943	-175.17	-44.3551	-10.9545	-163.07	-45.171	59.9725	-164.09	-56.5996	35.0928	-162.883	-69.2486	6.06729	-146.198	-56.4908	81.1077	-147.56	-69.9945	56.7267	-151.825	-87.0002	37.7754	-163.196	-30.4028	111.541	-168.727	-20.7084	141.044	-178.239	3.82875	115.488	
104	0.866667	-168.573	38.8684	120.215	-169.987	55.8448	92.4406	-170.907	73.776	62.8522	-170.608	86.3286	40.1468	-178.822	0.246762	44.2248	-177.97	-4.40448	14.8578	-176.434	-10.4185	-13.3997	-171.525	-30.8964	47.93	-173.602	-38.1692	17.0374	-171.104	-47.4104	-15.8712	-158.097	-49.2925	58.0523	-158.114	-57.1797	36.7597	-155.835	-67.6141	6.02651	-138.185	-53.1013	83.2573	-138.697	-68.2131	58.2793	-139.761	-86.1252	41.129	-161.222	-33.9843	112.618	-166.694	-25.7285	147.264	-179.977	3.84642	117.801	
105	0.875	-175.759	34.5307	117.671	-179.755	54.1561	94.7115	-181.807	66.247	62.7262	-182.844	81.306	46.8849	-180.97	-0.896706	44.934	-179.138	-7.31124	19.2626	-179.273	-10.7339	-13.0137	-171.587	-28.387	47.2527	-170.097	-38.0744	18.069	-167.275	-46.4492	-14.2655	-152.291	-45.3081	62.4132	-151.919	-56.6698	32.6661	-148.047	-67.9212	4.01612	-130.172	-53.429	81.8659	-128.916	-66.5726	59.9119	-130.057	-78.4626	39.5296	-159.175	-30.0021	112.357	-165.088	-24.3731	145.573	-179.001	-4.07753	115.285	
106	0.883333	-185.499	34.3623	119.524	-192.236	52.6855	97.4108	-195.415	63.228	63.4394	-198.737	76.3046	41.5945	-182.907	-5.08475	42.1119	-182.888	-8.04126	16.4345	-179.296	-11.3822	-11.4528	-167.699	-32.4449	43.6902	-164.862	-38.1761	15.9016	-159.109	-48.1871	-16.1405	-147.474	-43.578	60.0682	-141.965	-54.9103	34.587	-137.566	-63.5579	6.98979	-126.261	-48.3632	75.8982	-118.51	-62.6138	58.1112	-116.501	-78.0365	35.6432	-152.79	-32.4782	110.321	-160.778	-26.2321	145.615	-182.996	-4.21808	117.262	
107	0.891667	-187.756	28.4021	122.353	-199.161	44.2094	94.628	-204.375	57.187	67.4574	-211.302	70.7668	46.2164	-184.523	-5.63524	45.8561	-182.798	-9.08343	17.4522	-177.769	-11.5241	-11.4709	-163.837	-31.708	42.6121	-161.278	-36.5112	12.0499	-153.962	-42.6893	-14.6712	-141.331	-42.66	57.0241	-135.093	-52.5658	34.1863	-132.672	-56.5795	3.18824	-121.287	-43.736	75.835	-113.601	-52.6445	54.5858	-109.479	-65.515	32.2382	-149.477	-33.6311	110.391	-157.824	-28.217	144.252	-183.839	-11.0196	116.347	
